<mxfile host="app.diagrams.net" modified="2023-04-22T19:57:45.763Z" agent="Mozilla/5.0 (X11; Linux x86_64; rv:112.0) Gecko/20100101 Firefox/112.0" etag="wUJWSeElenCRDiRcjeyp" version="21.2.1" type="device">
  <diagram name="Page-1" id="tfmDBc3miOEakFV3B7y-">
    <mxGraphModel dx="2284" dy="723" grid="1" gridSize="10" guides="1" tooltips="1" connect="1" arrows="1" fold="1" page="1" pageScale="1" pageWidth="850" pageHeight="1100" math="0" shadow="0">
      <root>
        <mxCell id="0" />
        <mxCell id="1" parent="0" />
        <mxCell id="NPP5GdCvXKv0nV-kcgQ7-16" value="Video" style="swimlane;childLayout=stackLayout;horizontal=1;startSize=50;horizontalStack=0;rounded=0;fontSize=14;fontStyle=0;strokeWidth=2;resizeParent=0;resizeLast=1;shadow=0;dashed=0;align=center;arcSize=4;whiteSpace=wrap;html=1;" parent="1" vertex="1">
          <mxGeometry x="-330" y="350" width="160" height="105" as="geometry" />
        </mxCell>
        <mxCell id="NPP5GdCvXKv0nV-kcgQ7-17" value="&lt;div&gt;+name: String&lt;br&gt;&lt;/div&gt;&lt;div&gt;+path: String&lt;/div&gt;&lt;div&gt;+type: String&lt;br&gt;&lt;/div&gt;&lt;div&gt;&lt;br&gt;&lt;/div&gt;&lt;div&gt;&lt;br&gt;&lt;/div&gt;" style="align=left;strokeColor=none;fillColor=none;spacingLeft=4;fontSize=12;verticalAlign=top;resizable=0;rotatable=0;part=1;html=1;" parent="NPP5GdCvXKv0nV-kcgQ7-16" vertex="1">
          <mxGeometry y="50" width="160" height="55" as="geometry" />
        </mxCell>
        <mxCell id="NPP5GdCvXKv0nV-kcgQ7-36" style="edgeStyle=orthogonalEdgeStyle;orthogonalLoop=1;jettySize=auto;html=1;startFill=1;endFill=0;rounded=0;entryX=0.5;entryY=1;entryDx=0;entryDy=0;" parent="1" edge="1">
          <mxGeometry relative="1" as="geometry">
            <mxPoint x="720" y="729.9999999999998" as="sourcePoint" />
          </mxGeometry>
        </mxCell>
        <mxCell id="7pt3q2MDJ_d6-O4SjyfG-34" style="rounded=0;orthogonalLoop=1;jettySize=auto;html=1;exitX=1;exitY=0.75;exitDx=0;exitDy=0;entryX=0;entryY=0.5;entryDx=0;entryDy=0;endArrow=none;endFill=0;" parent="1" source="QFNl94cKe365iZrxpkh_-8" target="7pt3q2MDJ_d6-O4SjyfG-33" edge="1">
          <mxGeometry relative="1" as="geometry" />
        </mxCell>
        <mxCell id="7pt3q2MDJ_d6-O4SjyfG-47" style="rounded=0;orthogonalLoop=1;jettySize=auto;html=1;exitX=1;exitY=0.75;exitDx=0;exitDy=0;entryX=0;entryY=0.5;entryDx=0;entryDy=0;endArrow=none;endFill=0;" parent="1" source="QFNl94cKe365iZrxpkh_-8" target="7pt3q2MDJ_d6-O4SjyfG-46" edge="1">
          <mxGeometry relative="1" as="geometry" />
        </mxCell>
        <mxCell id="N_5KMHFPPtvNETul84LO-47" style="rounded=0;orthogonalLoop=1;jettySize=auto;html=1;exitX=0;exitY=0.25;exitDx=0;exitDy=0;entryX=1;entryY=0.5;entryDx=0;entryDy=0;endArrow=none;endFill=0;" parent="1" source="QFNl94cKe365iZrxpkh_-8" target="N_5KMHFPPtvNETul84LO-45" edge="1">
          <mxGeometry relative="1" as="geometry" />
        </mxCell>
        <mxCell id="QFNl94cKe365iZrxpkh_-8" value="&lt;font style=&quot;font-size: 23px;&quot;&gt;ðŸ¯…&lt;/font&gt; User" style="shape=hexagon;perimeter=hexagonPerimeter2;whiteSpace=wrap;html=1;fixedSize=1;fillColor=#ffff88;strokeColor=#36393d;" parent="1" vertex="1">
          <mxGeometry x="795" y="690" width="80" height="50" as="geometry" />
        </mxCell>
        <mxCell id="QFNl94cKe365iZrxpkh_-9" value="&lt;div&gt;System&lt;/div&gt;" style="shape=hexagon;perimeter=hexagonPerimeter2;whiteSpace=wrap;html=1;fixedSize=1;fillColor=#ffff88;strokeColor=#36393d;" parent="1" vertex="1">
          <mxGeometry x="570" y="1230" width="80" height="50" as="geometry" />
        </mxCell>
        <mxCell id="N_5KMHFPPtvNETul84LO-94" style="rounded=0;orthogonalLoop=1;jettySize=auto;html=1;exitX=0;exitY=1;exitDx=0;exitDy=0;entryX=1;entryY=0.25;entryDx=0;entryDy=0;" parent="1" source="N_5KMHFPPtvNETul84LO-45" target="N_5KMHFPPtvNETul84LO-41" edge="1">
          <mxGeometry relative="1" as="geometry" />
        </mxCell>
        <mxCell id="QFNl94cKe365iZrxpkh_-40" value="&lt;div&gt;User is Logged In&lt;/div&gt;" style="shape=parallelogram;perimeter=parallelogramPerimeter;whiteSpace=wrap;html=1;fixedSize=1;fillColor=#dae8fc;strokeColor=#000000;strokeWidth=4;" parent="1" vertex="1">
          <mxGeometry x="755" y="470" width="160" height="60" as="geometry" />
        </mxCell>
        <mxCell id="QFNl94cKe365iZrxpkh_-47" value="" style="ellipse;whiteSpace=wrap;html=1;aspect=fixed;fillColor=#e51400;strokeColor=#B20000;fontColor=#ffffff;" parent="1" vertex="1">
          <mxGeometry x="825" y="585" width="20" height="20" as="geometry" />
        </mxCell>
        <mxCell id="QFNl94cKe365iZrxpkh_-48" value="" style="endArrow=none;html=1;rounded=0;entryX=0.5;entryY=1;entryDx=0;entryDy=0;exitX=0.5;exitY=0;exitDx=0;exitDy=0;" parent="1" source="QFNl94cKe365iZrxpkh_-8" target="QFNl94cKe365iZrxpkh_-47" edge="1">
          <mxGeometry width="50" height="50" relative="1" as="geometry">
            <mxPoint x="770" y="680" as="sourcePoint" />
            <mxPoint x="820" y="630" as="targetPoint" />
          </mxGeometry>
        </mxCell>
        <mxCell id="QFNl94cKe365iZrxpkh_-49" value="" style="endArrow=classic;html=1;rounded=0;entryX=0.5;entryY=1;entryDx=0;entryDy=0;exitX=0.5;exitY=0;exitDx=0;exitDy=0;" parent="1" source="QFNl94cKe365iZrxpkh_-47" target="QFNl94cKe365iZrxpkh_-40" edge="1">
          <mxGeometry width="50" height="50" relative="1" as="geometry">
            <mxPoint x="780" y="560" as="sourcePoint" />
            <mxPoint x="830" y="510" as="targetPoint" />
          </mxGeometry>
        </mxCell>
        <mxCell id="QFNl94cKe365iZrxpkh_-58" value="" style="endArrow=none;html=1;rounded=0;entryX=1;entryY=1;entryDx=0;entryDy=0;exitX=0.5;exitY=0;exitDx=0;exitDy=0;" parent="1" source="aQ1ItRAyzIvojmRAUkcw-15" target="N_5KMHFPPtvNETul84LO-60" edge="1">
          <mxGeometry width="50" height="50" relative="1" as="geometry">
            <mxPoint x="700" y="1210" as="sourcePoint" />
            <mxPoint x="490" y="900" as="targetPoint" />
          </mxGeometry>
        </mxCell>
        <mxCell id="7pt3q2MDJ_d6-O4SjyfG-26" style="edgeStyle=orthogonalEdgeStyle;rounded=0;orthogonalLoop=1;jettySize=auto;html=1;exitX=0.5;exitY=0;exitDx=0;exitDy=0;entryX=0;entryY=0.5;entryDx=0;entryDy=0;fillColor=#dae8fc;strokeColor=#6c8ebf;" parent="1" source="7pt3q2MDJ_d6-O4SjyfG-2" target="7pt3q2MDJ_d6-O4SjyfG-14" edge="1">
          <mxGeometry relative="1" as="geometry">
            <Array as="points">
              <mxPoint x="1205" y="300" />
            </Array>
          </mxGeometry>
        </mxCell>
        <mxCell id="7pt3q2MDJ_d6-O4SjyfG-2" value="Login User" style="shape=parallelogram;html=1;strokeWidth=2;perimeter=parallelogramPerimeter;whiteSpace=wrap;rounded=0;arcSize=12;size=0.23;fillColor=#dae8fc;strokeColor=#6c8ebf;" parent="1" vertex="1">
          <mxGeometry x="1135" y="560" width="140" height="50" as="geometry" />
        </mxCell>
        <mxCell id="7pt3q2MDJ_d6-O4SjyfG-13" style="rounded=0;orthogonalLoop=1;jettySize=auto;html=1;exitX=0.5;exitY=0;exitDx=0;exitDy=0;entryX=0.75;entryY=1;entryDx=0;entryDy=0;" parent="1" source="7pt3q2MDJ_d6-O4SjyfG-52" target="QFNl94cKe365iZrxpkh_-40" edge="1">
          <mxGeometry relative="1" as="geometry">
            <mxPoint x="1050" y="580" as="targetPoint" />
          </mxGeometry>
        </mxCell>
        <mxCell id="7pt3q2MDJ_d6-O4SjyfG-10" value="Fills Login Form" style="ellipse;whiteSpace=wrap;html=1;fillColor=#f8cecc;strokeColor=#b85450;" parent="1" vertex="1">
          <mxGeometry x="875" y="630" width="120" height="30" as="geometry" />
        </mxCell>
        <mxCell id="7pt3q2MDJ_d6-O4SjyfG-19" style="rounded=0;orthogonalLoop=1;jettySize=auto;html=1;exitX=1;exitY=0.5;exitDx=0;exitDy=0;entryX=0.75;entryY=0;entryDx=0;entryDy=0;strokeColor=#FF6666;" parent="1" source="7pt3q2MDJ_d6-O4SjyfG-14" target="N_5KMHFPPtvNETul84LO-41" edge="1">
          <mxGeometry relative="1" as="geometry">
            <mxPoint x="584.583333333333" y="296.25" as="targetPoint" />
          </mxGeometry>
        </mxCell>
        <mxCell id="7pt3q2MDJ_d6-O4SjyfG-20" style="rounded=0;orthogonalLoop=1;jettySize=auto;html=1;exitX=1;exitY=0.25;exitDx=0;exitDy=0;strokeColor=#FF6666;" parent="1" source="7pt3q2MDJ_d6-O4SjyfG-14" target="N_5KMHFPPtvNETul84LO-68" edge="1">
          <mxGeometry relative="1" as="geometry">
            <mxPoint x="585" y="600" as="targetPoint" />
          </mxGeometry>
        </mxCell>
        <mxCell id="7pt3q2MDJ_d6-O4SjyfG-21" style="rounded=0;orthogonalLoop=1;jettySize=auto;html=1;exitX=1;exitY=0.75;exitDx=0;exitDy=0;strokeColor=#FF6666;" parent="1" source="7pt3q2MDJ_d6-O4SjyfG-14" target="N_5KMHFPPtvNETul84LO-61" edge="1">
          <mxGeometry relative="1" as="geometry">
            <mxPoint x="366.1538461538462" y="611.5384615384614" as="targetPoint" />
          </mxGeometry>
        </mxCell>
        <mxCell id="7pt3q2MDJ_d6-O4SjyfG-14" value="&lt;div&gt;User is not Logged In&lt;/div&gt;" style="shape=parallelogram;perimeter=parallelogramPerimeter;whiteSpace=wrap;html=1;fixedSize=1;fillColor=#FF6666;strokeColor=#6F0000;strokeWidth=4;size=15;direction=west;flipH=1;fontColor=#ffffff;" parent="1" vertex="1">
          <mxGeometry x="780" y="270" width="160" height="60" as="geometry" />
        </mxCell>
        <mxCell id="7pt3q2MDJ_d6-O4SjyfG-27" value="" style="endArrow=none;html=1;rounded=0;fillColor=#dae8fc;strokeColor=#6c8ebf;" parent="1" edge="1">
          <mxGeometry width="50" height="50" relative="1" as="geometry">
            <mxPoint x="960" y="310" as="sourcePoint" />
            <mxPoint x="960" y="290" as="targetPoint" />
          </mxGeometry>
        </mxCell>
        <mxCell id="7pt3q2MDJ_d6-O4SjyfG-31" style="edgeStyle=orthogonalEdgeStyle;rounded=0;orthogonalLoop=1;jettySize=auto;html=1;exitX=1;exitY=0.5;exitDx=0;exitDy=0;fillColor=#f8cecc;strokeColor=#b85450;" parent="1" source="7pt3q2MDJ_d6-O4SjyfG-30" edge="1">
          <mxGeometry relative="1" as="geometry">
            <mxPoint x="1260" y="581" as="targetPoint" />
          </mxGeometry>
        </mxCell>
        <mxCell id="7pt3q2MDJ_d6-O4SjyfG-30" value="&lt;div&gt;User is not Registered&lt;br&gt;&lt;/div&gt;" style="shape=parallelogram;perimeter=parallelogramPerimeter;whiteSpace=wrap;html=1;fixedSize=1;fillColor=#FF6666;strokeColor=#6F0000;strokeWidth=4;size=15;direction=west;flipH=1;fontColor=#ffffff;" parent="1" vertex="1">
          <mxGeometry x="1390" y="550" width="160" height="60" as="geometry" />
        </mxCell>
        <mxCell id="7pt3q2MDJ_d6-O4SjyfG-36" style="edgeStyle=orthogonalEdgeStyle;rounded=0;orthogonalLoop=1;jettySize=auto;html=1;exitX=0.5;exitY=0;exitDx=0;exitDy=0;" parent="1" source="7pt3q2MDJ_d6-O4SjyfG-32" edge="1">
          <mxGeometry relative="1" as="geometry">
            <mxPoint x="1205" y="610" as="targetPoint" />
          </mxGeometry>
        </mxCell>
        <mxCell id="7pt3q2MDJ_d6-O4SjyfG-32" value="&lt;div&gt;User is Registered&lt;br&gt;&lt;/div&gt;" style="shape=parallelogram;perimeter=parallelogramPerimeter;whiteSpace=wrap;html=1;fixedSize=1;fillColor=#dae8fc;strokeColor=#000000;strokeWidth=4;" parent="1" vertex="1">
          <mxGeometry x="1125" y="657" width="160" height="60" as="geometry" />
        </mxCell>
        <mxCell id="7pt3q2MDJ_d6-O4SjyfG-35" style="rounded=0;orthogonalLoop=1;jettySize=auto;html=1;exitX=1;exitY=0.5;exitDx=0;exitDy=0;entryX=0.057;entryY=0.606;entryDx=0;entryDy=0;entryPerimeter=0;" parent="1" source="7pt3q2MDJ_d6-O4SjyfG-33" target="7pt3q2MDJ_d6-O4SjyfG-32" edge="1">
          <mxGeometry relative="1" as="geometry" />
        </mxCell>
        <mxCell id="7pt3q2MDJ_d6-O4SjyfG-33" value="" style="ellipse;whiteSpace=wrap;html=1;aspect=fixed;fillColor=#e51400;strokeColor=#B20000;fontColor=#ffffff;" parent="1" vertex="1">
          <mxGeometry x="1030" y="740" width="20" height="20" as="geometry" />
        </mxCell>
        <mxCell id="7pt3q2MDJ_d6-O4SjyfG-37" value="" style="endArrow=none;html=1;rounded=0;" parent="1" edge="1">
          <mxGeometry width="50" height="50" relative="1" as="geometry">
            <mxPoint x="1280" y="590" as="sourcePoint" />
            <mxPoint x="1280" y="570" as="targetPoint" />
          </mxGeometry>
        </mxCell>
        <mxCell id="7pt3q2MDJ_d6-O4SjyfG-44" style="edgeStyle=orthogonalEdgeStyle;rounded=0;orthogonalLoop=1;jettySize=auto;html=1;exitX=0;exitY=0;exitDx=0;exitDy=0;entryX=0;entryY=0.5;entryDx=0;entryDy=0;fillColor=#dae8fc;strokeColor=#6c8ebf;" parent="1" source="7pt3q2MDJ_d6-O4SjyfG-43" target="7pt3q2MDJ_d6-O4SjyfG-30" edge="1">
          <mxGeometry relative="1" as="geometry" />
        </mxCell>
        <mxCell id="7pt3q2MDJ_d6-O4SjyfG-43" value="Register User" style="shape=parallelogram;html=1;strokeWidth=2;perimeter=parallelogramPerimeter;whiteSpace=wrap;rounded=0;arcSize=12;size=0.23;fillColor=#dae8fc;strokeColor=#6c8ebf;" parent="1" vertex="1">
          <mxGeometry x="1600" y="570" width="140" height="50" as="geometry" />
        </mxCell>
        <mxCell id="7pt3q2MDJ_d6-O4SjyfG-45" value="" style="endArrow=none;html=1;rounded=0;" parent="1" edge="1">
          <mxGeometry width="50" height="50" relative="1" as="geometry">
            <mxPoint x="1560" y="590" as="sourcePoint" />
            <mxPoint x="1560" y="570" as="targetPoint" />
          </mxGeometry>
        </mxCell>
        <mxCell id="7pt3q2MDJ_d6-O4SjyfG-48" style="edgeStyle=orthogonalEdgeStyle;rounded=0;orthogonalLoop=1;jettySize=auto;html=1;exitX=1;exitY=0.5;exitDx=0;exitDy=0;entryX=0.5;entryY=1;entryDx=0;entryDy=0;" parent="1" source="7pt3q2MDJ_d6-O4SjyfG-46" target="7pt3q2MDJ_d6-O4SjyfG-43" edge="1">
          <mxGeometry relative="1" as="geometry" />
        </mxCell>
        <mxCell id="7pt3q2MDJ_d6-O4SjyfG-46" value="" style="ellipse;whiteSpace=wrap;html=1;aspect=fixed;fillColor=#e51400;strokeColor=#B20000;fontColor=#ffffff;" parent="1" vertex="1">
          <mxGeometry x="1040" y="800" width="20" height="20" as="geometry" />
        </mxCell>
        <mxCell id="7pt3q2MDJ_d6-O4SjyfG-52" value="" style="ellipse;whiteSpace=wrap;html=1;aspect=fixed;fillColor=#cce5ff;strokeColor=#36393d;" parent="1" vertex="1">
          <mxGeometry x="915" y="580" width="20" height="20" as="geometry" />
        </mxCell>
        <mxCell id="7pt3q2MDJ_d6-O4SjyfG-53" style="rounded=0;orthogonalLoop=1;jettySize=auto;html=1;entryX=0.5;entryY=1;entryDx=0;entryDy=0;" parent="1" source="7pt3q2MDJ_d6-O4SjyfG-56" target="7pt3q2MDJ_d6-O4SjyfG-32" edge="1">
          <mxGeometry relative="1" as="geometry">
            <mxPoint x="1390" y="740" as="targetPoint" />
            <mxPoint x="1390" y="820" as="sourcePoint" />
          </mxGeometry>
        </mxCell>
        <mxCell id="7pt3q2MDJ_d6-O4SjyfG-59" style="rounded=0;orthogonalLoop=1;jettySize=auto;html=1;exitX=0.5;exitY=0;exitDx=0;exitDy=0;endArrow=none;endFill=0;entryX=0.5;entryY=1;entryDx=0;entryDy=0;" parent="1" source="7pt3q2MDJ_d6-O4SjyfG-54" target="7pt3q2MDJ_d6-O4SjyfG-56" edge="1">
          <mxGeometry relative="1" as="geometry">
            <mxPoint x="1210" y="830" as="targetPoint" />
          </mxGeometry>
        </mxCell>
        <mxCell id="7pt3q2MDJ_d6-O4SjyfG-54" value="Fills Registration Form" style="ellipse;whiteSpace=wrap;html=1;fillColor=#f8cecc;strokeColor=#b85450;" parent="1" vertex="1">
          <mxGeometry x="1100" y="880" width="160" height="40" as="geometry" />
        </mxCell>
        <mxCell id="7pt3q2MDJ_d6-O4SjyfG-55" value="" style="endArrow=classic;html=1;rounded=0;exitX=0.825;exitY=0.9;exitDx=0;exitDy=0;endFill=1;exitPerimeter=0;" parent="1" source="QFNl94cKe365iZrxpkh_-8" edge="1">
          <mxGeometry width="50" height="50" relative="1" as="geometry">
            <mxPoint x="1125" y="853" as="sourcePoint" />
            <mxPoint x="1100" y="905" as="targetPoint" />
          </mxGeometry>
        </mxCell>
        <mxCell id="7pt3q2MDJ_d6-O4SjyfG-56" value="" style="ellipse;whiteSpace=wrap;html=1;aspect=fixed;fillColor=#cce5ff;strokeColor=#36393d;" parent="1" vertex="1">
          <mxGeometry x="1190" y="777" width="20" height="20" as="geometry" />
        </mxCell>
        <mxCell id="N_5KMHFPPtvNETul84LO-39" value="Manage Videos" style="shape=parallelogram;perimeter=parallelogramPerimeter;whiteSpace=wrap;html=1;fixedSize=1;fillColor=#dae8fc;strokeColor=#6c8ebf;" parent="1" vertex="1">
          <mxGeometry x="350" y="335" width="140" height="60" as="geometry" />
        </mxCell>
        <mxCell id="N_5KMHFPPtvNETul84LO-88" style="rounded=0;orthogonalLoop=1;jettySize=auto;html=1;exitX=0.5;exitY=1;exitDx=0;exitDy=0;entryX=0;entryY=0.5;entryDx=0;entryDy=0;fillColor=#dae8fc;strokeColor=#6c8ebf;" parent="1" source="N_5KMHFPPtvNETul84LO-41" target="N_5KMHFPPtvNETul84LO-86" edge="1">
          <mxGeometry relative="1" as="geometry" />
        </mxCell>
        <mxCell id="N_5KMHFPPtvNETul84LO-41" value="Create Video" style="shape=parallelogram;perimeter=parallelogramPerimeter;whiteSpace=wrap;html=1;fixedSize=1;fillColor=#dae8fc;strokeColor=#6c8ebf;" parent="1" vertex="1">
          <mxGeometry x="190" y="730" width="140" height="60" as="geometry" />
        </mxCell>
        <mxCell id="N_5KMHFPPtvNETul84LO-45" value="" style="ellipse;whiteSpace=wrap;html=1;aspect=fixed;fillColor=#ffff88;strokeColor=#36393d;" parent="1" vertex="1">
          <mxGeometry x="510" y="590" width="20" height="20" as="geometry" />
        </mxCell>
        <mxCell id="N_5KMHFPPtvNETul84LO-51" style="rounded=0;orthogonalLoop=1;jettySize=auto;html=1;exitX=0.5;exitY=0;exitDx=0;exitDy=0;" parent="1" source="N_5KMHFPPtvNETul84LO-49" target="N_5KMHFPPtvNETul84LO-39" edge="1">
          <mxGeometry relative="1" as="geometry" />
        </mxCell>
        <mxCell id="N_5KMHFPPtvNETul84LO-49" value="" style="ellipse;whiteSpace=wrap;html=1;aspect=fixed;fillColor=#ffff88;strokeColor=#36393d;" parent="1" vertex="1">
          <mxGeometry x="410" y="435" width="20" height="20" as="geometry" />
        </mxCell>
        <mxCell id="N_5KMHFPPtvNETul84LO-57" style="rounded=0;orthogonalLoop=1;jettySize=auto;html=1;exitX=0;exitY=0.25;exitDx=0;exitDy=0;entryX=1;entryY=0.5;entryDx=0;entryDy=0;endArrow=none;endFill=0;" parent="1" source="QFNl94cKe365iZrxpkh_-8" target="N_5KMHFPPtvNETul84LO-60" edge="1">
          <mxGeometry relative="1" as="geometry">
            <mxPoint x="575" y="702" as="sourcePoint" />
            <Array as="points">
              <mxPoint x="560" y="650" />
            </Array>
          </mxGeometry>
        </mxCell>
        <mxCell id="N_5KMHFPPtvNETul84LO-58" value="" style="endArrow=none;html=1;rounded=0;entryX=1;entryY=1;entryDx=0;entryDy=0;exitX=0.5;exitY=0;exitDx=0;exitDy=0;" parent="1" source="aQ1ItRAyzIvojmRAUkcw-15" target="N_5KMHFPPtvNETul84LO-45" edge="1">
          <mxGeometry width="50" height="50" relative="1" as="geometry">
            <mxPoint x="340" y="920" as="sourcePoint" />
            <mxPoint x="270" y="887" as="targetPoint" />
            <Array as="points">
              <mxPoint x="590" y="740" />
            </Array>
          </mxGeometry>
        </mxCell>
        <mxCell id="N_5KMHFPPtvNETul84LO-59" style="rounded=0;orthogonalLoop=1;jettySize=auto;html=1;exitX=0;exitY=0.5;exitDx=0;exitDy=0;entryX=1;entryY=0.5;entryDx=0;entryDy=0;" parent="1" source="N_5KMHFPPtvNETul84LO-60" target="N_5KMHFPPtvNETul84LO-61" edge="1">
          <mxGeometry relative="1" as="geometry" />
        </mxCell>
        <mxCell id="N_5KMHFPPtvNETul84LO-60" value="" style="ellipse;whiteSpace=wrap;html=1;aspect=fixed;fillColor=#ffff88;strokeColor=#36393d;" parent="1" vertex="1">
          <mxGeometry x="260" y="640" width="20" height="20" as="geometry" />
        </mxCell>
        <mxCell id="N_5KMHFPPtvNETul84LO-61" value="List Videos" style="shape=parallelogram;perimeter=parallelogramPerimeter;whiteSpace=wrap;html=1;fixedSize=1;fillColor=#dae8fc;strokeColor=#6c8ebf;" parent="1" vertex="1">
          <mxGeometry x="-30" y="717" width="140" height="60" as="geometry" />
        </mxCell>
        <mxCell id="N_5KMHFPPtvNETul84LO-64" style="rounded=0;orthogonalLoop=1;jettySize=auto;html=1;entryX=1;entryY=0.5;entryDx=0;entryDy=0;endArrow=none;endFill=0;exitX=0;exitY=0.5;exitDx=0;exitDy=0;" parent="1" source="QFNl94cKe365iZrxpkh_-8" target="N_5KMHFPPtvNETul84LO-67" edge="1">
          <mxGeometry relative="1" as="geometry">
            <mxPoint x="770" y="730" as="sourcePoint" />
          </mxGeometry>
        </mxCell>
        <mxCell id="N_5KMHFPPtvNETul84LO-66" style="rounded=0;orthogonalLoop=1;jettySize=auto;html=1;exitX=0;exitY=0.5;exitDx=0;exitDy=0;entryX=1;entryY=0.5;entryDx=0;entryDy=0;" parent="1" source="N_5KMHFPPtvNETul84LO-67" target="N_5KMHFPPtvNETul84LO-68" edge="1">
          <mxGeometry relative="1" as="geometry" />
        </mxCell>
        <mxCell id="N_5KMHFPPtvNETul84LO-67" value="" style="ellipse;whiteSpace=wrap;html=1;aspect=fixed;fillColor=#ffff88;strokeColor=#36393d;" parent="1" vertex="1">
          <mxGeometry x="630" y="705" width="20" height="20" as="geometry" />
        </mxCell>
        <mxCell id="N_5KMHFPPtvNETul84LO-77" style="rounded=0;orthogonalLoop=1;jettySize=auto;html=1;exitX=0.5;exitY=0;exitDx=0;exitDy=0;entryX=0.5;entryY=1;entryDx=0;entryDy=0;endArrow=none;endFill=0;" parent="1" source="N_5KMHFPPtvNETul84LO-68" target="N_5KMHFPPtvNETul84LO-49" edge="1">
          <mxGeometry relative="1" as="geometry" />
        </mxCell>
        <mxCell id="N_5KMHFPPtvNETul84LO-68" value="Remove Video" style="shape=parallelogram;perimeter=parallelogramPerimeter;whiteSpace=wrap;html=1;fixedSize=1;fillColor=#dae8fc;strokeColor=#6c8ebf;" parent="1" vertex="1">
          <mxGeometry x="420" y="693.5" width="140" height="60" as="geometry" />
        </mxCell>
        <mxCell id="N_5KMHFPPtvNETul84LO-71" style="rounded=0;orthogonalLoop=1;jettySize=auto;html=1;exitX=0;exitY=0.5;exitDx=0;exitDy=0;entryX=1;entryY=0.5;entryDx=0;entryDy=0;" parent="1" source="N_5KMHFPPtvNETul84LO-74" target="N_5KMHFPPtvNETul84LO-41" edge="1">
          <mxGeometry relative="1" as="geometry">
            <mxPoint x="745" y="797" as="targetPoint" />
          </mxGeometry>
        </mxCell>
        <mxCell id="N_5KMHFPPtvNETul84LO-76" style="rounded=0;orthogonalLoop=1;jettySize=auto;html=1;exitX=0;exitY=0.5;exitDx=0;exitDy=0;entryX=1;entryY=0.5;entryDx=0;entryDy=0;endArrow=none;endFill=0;" parent="1" source="N_5KMHFPPtvNETul84LO-72" target="N_5KMHFPPtvNETul84LO-74" edge="1">
          <mxGeometry relative="1" as="geometry" />
        </mxCell>
        <mxCell id="N_5KMHFPPtvNETul84LO-72" value="inputs data" style="ellipse;whiteSpace=wrap;html=1;fillColor=#f8cecc;strokeColor=#b85450;" parent="1" vertex="1">
          <mxGeometry x="660" y="780" width="120" height="30" as="geometry" />
        </mxCell>
        <mxCell id="N_5KMHFPPtvNETul84LO-73" value="" style="endArrow=classic;html=1;rounded=0;entryX=1;entryY=0;entryDx=0;entryDy=0;endFill=1;" parent="1" source="QFNl94cKe365iZrxpkh_-8" target="N_5KMHFPPtvNETul84LO-72" edge="1">
          <mxGeometry width="50" height="50" relative="1" as="geometry">
            <mxPoint x="480" y="910" as="sourcePoint" />
            <mxPoint x="535" y="835" as="targetPoint" />
          </mxGeometry>
        </mxCell>
        <mxCell id="N_5KMHFPPtvNETul84LO-74" value="" style="ellipse;whiteSpace=wrap;html=1;aspect=fixed;fillColor=#cce5ff;strokeColor=#36393d;" parent="1" vertex="1">
          <mxGeometry x="450" y="790" width="20" height="20" as="geometry" />
        </mxCell>
        <mxCell id="N_5KMHFPPtvNETul84LO-78" style="rounded=0;orthogonalLoop=1;jettySize=auto;html=1;entryX=0.5;entryY=1;entryDx=0;entryDy=0;endArrow=none;endFill=0;" parent="1" source="N_5KMHFPPtvNETul84LO-41" target="N_5KMHFPPtvNETul84LO-49" edge="1">
          <mxGeometry relative="1" as="geometry">
            <mxPoint x="470" y="749" as="sourcePoint" />
            <mxPoint x="365" y="580" as="targetPoint" />
          </mxGeometry>
        </mxCell>
        <mxCell id="N_5KMHFPPtvNETul84LO-87" style="rounded=0;orthogonalLoop=1;jettySize=auto;html=1;exitX=0.25;exitY=1;exitDx=0;exitDy=0;entryX=0.5;entryY=1;entryDx=0;entryDy=0;fillColor=#f8cecc;strokeColor=#b85450;" parent="1" source="N_5KMHFPPtvNETul84LO-86" target="N_5KMHFPPtvNETul84LO-61" edge="1">
          <mxGeometry relative="1" as="geometry" />
        </mxCell>
        <mxCell id="N_5KMHFPPtvNETul84LO-86" value="No videos" style="shape=parallelogram;perimeter=parallelogramPerimeter;whiteSpace=wrap;html=1;fixedSize=1;fillColor=#FF6666;strokeColor=#6F0000;strokeWidth=4;size=15;direction=west;flipH=1;fontColor=#ffffff;" parent="1" vertex="1">
          <mxGeometry x="-90" y="860" width="160" height="60" as="geometry" />
        </mxCell>
        <mxCell id="N_5KMHFPPtvNETul84LO-89" value="" style="endArrow=none;html=1;rounded=0;fillColor=#dae8fc;strokeColor=#6c8ebf;" parent="1" edge="1">
          <mxGeometry width="50" height="50" relative="1" as="geometry">
            <mxPoint x="80" y="890" as="sourcePoint" />
            <mxPoint x="80" y="870" as="targetPoint" />
          </mxGeometry>
        </mxCell>
        <mxCell id="N_5KMHFPPtvNETul84LO-90" value="" style="endArrow=none;html=1;rounded=0;fillColor=#f8cecc;strokeColor=#b85450;" parent="1" edge="1">
          <mxGeometry width="50" height="50" relative="1" as="geometry">
            <mxPoint x="50" y="790" as="sourcePoint" />
            <mxPoint x="30" y="790" as="targetPoint" />
          </mxGeometry>
        </mxCell>
        <mxCell id="N_5KMHFPPtvNETul84LO-91" value="" style="endArrow=none;html=1;rounded=0;fillColor=#f8cecc;strokeColor=#b85450;" parent="1" edge="1">
          <mxGeometry width="50" height="50" relative="1" as="geometry">
            <mxPoint x="120" y="710" as="sourcePoint" />
            <mxPoint x="110" y="700" as="targetPoint" />
          </mxGeometry>
        </mxCell>
        <mxCell id="N_5KMHFPPtvNETul84LO-92" value="" style="endArrow=none;html=1;rounded=0;fillColor=#f8cecc;strokeColor=#b85450;" parent="1" edge="1">
          <mxGeometry width="50" height="50" relative="1" as="geometry">
            <mxPoint x="320" y="720" as="sourcePoint" />
            <mxPoint x="290" y="720" as="targetPoint" />
          </mxGeometry>
        </mxCell>
        <mxCell id="N_5KMHFPPtvNETul84LO-93" value="" style="endArrow=none;html=1;rounded=0;fillColor=#f8cecc;strokeColor=#b85450;" parent="1" edge="1">
          <mxGeometry width="50" height="50" relative="1" as="geometry">
            <mxPoint x="530" y="685" as="sourcePoint" />
            <mxPoint x="510" y="675" as="targetPoint" />
          </mxGeometry>
        </mxCell>
        <mxCell id="aQ1ItRAyzIvojmRAUkcw-1" value="" style="endArrow=none;html=1;rounded=0;exitX=1;exitY=0.5;exitDx=0;exitDy=0;entryX=0;entryY=0.5;entryDx=0;entryDy=0;" edge="1" parent="1" source="NPP5GdCvXKv0nV-kcgQ7-16" target="N_5KMHFPPtvNETul84LO-39">
          <mxGeometry width="50" height="50" relative="1" as="geometry">
            <mxPoint x="90" y="430" as="sourcePoint" />
            <mxPoint x="140" y="380" as="targetPoint" />
          </mxGeometry>
        </mxCell>
        <mxCell id="aQ1ItRAyzIvojmRAUkcw-2" value="" style="endArrow=none;html=1;rounded=0;entryX=0.5;entryY=1;entryDx=0;entryDy=0;exitX=0.5;exitY=0;exitDx=0;exitDy=0;" edge="1" parent="1" source="7pt3q2MDJ_d6-O4SjyfG-10" target="7pt3q2MDJ_d6-O4SjyfG-52">
          <mxGeometry width="50" height="50" relative="1" as="geometry">
            <mxPoint x="860" y="660" as="sourcePoint" />
            <mxPoint x="910" y="610" as="targetPoint" />
          </mxGeometry>
        </mxCell>
        <mxCell id="aQ1ItRAyzIvojmRAUkcw-3" value="" style="endArrow=none;html=1;rounded=0;entryX=0.5;entryY=1;entryDx=0;entryDy=0;exitX=1;exitY=0.25;exitDx=0;exitDy=0;" edge="1" parent="1" source="QFNl94cKe365iZrxpkh_-8" target="7pt3q2MDJ_d6-O4SjyfG-10">
          <mxGeometry width="50" height="50" relative="1" as="geometry">
            <mxPoint x="880" y="730" as="sourcePoint" />
            <mxPoint x="930" y="680" as="targetPoint" />
          </mxGeometry>
        </mxCell>
        <mxCell id="aQ1ItRAyzIvojmRAUkcw-8" value="" style="endArrow=none;html=1;rounded=0;entryX=0.5;entryY=1;entryDx=0;entryDy=0;exitX=0.5;exitY=0;exitDx=0;exitDy=0;" edge="1" parent="1" source="N_5KMHFPPtvNETul84LO-41" target="N_5KMHFPPtvNETul84LO-60">
          <mxGeometry width="50" height="50" relative="1" as="geometry">
            <mxPoint x="220" y="720" as="sourcePoint" />
            <mxPoint x="270" y="670" as="targetPoint" />
          </mxGeometry>
        </mxCell>
        <mxCell id="aQ1ItRAyzIvojmRAUkcw-9" value="" style="endArrow=none;html=1;rounded=0;entryX=0;entryY=0.25;entryDx=0;entryDy=0;exitX=1;exitY=0;exitDx=0;exitDy=0;" edge="1" parent="1" source="N_5KMHFPPtvNETul84LO-60" target="QFNl94cKe365iZrxpkh_-40">
          <mxGeometry width="50" height="50" relative="1" as="geometry">
            <mxPoint x="490" y="620" as="sourcePoint" />
            <mxPoint x="540" y="570" as="targetPoint" />
          </mxGeometry>
        </mxCell>
        <mxCell id="aQ1ItRAyzIvojmRAUkcw-10" value="" style="endArrow=none;html=1;rounded=0;entryX=0;entryY=0.5;entryDx=0;entryDy=0;exitX=1;exitY=0;exitDx=0;exitDy=0;" edge="1" parent="1" source="N_5KMHFPPtvNETul84LO-45" target="QFNl94cKe365iZrxpkh_-40">
          <mxGeometry width="50" height="50" relative="1" as="geometry">
            <mxPoint x="630" y="580" as="sourcePoint" />
            <mxPoint x="680" y="530" as="targetPoint" />
          </mxGeometry>
        </mxCell>
        <mxCell id="aQ1ItRAyzIvojmRAUkcw-11" value="" style="endArrow=none;html=1;rounded=0;entryX=0;entryY=1;entryDx=0;entryDy=0;exitX=0.5;exitY=0;exitDx=0;exitDy=0;" edge="1" parent="1" source="N_5KMHFPPtvNETul84LO-67" target="QFNl94cKe365iZrxpkh_-40">
          <mxGeometry width="50" height="50" relative="1" as="geometry">
            <mxPoint x="710" y="610" as="sourcePoint" />
            <mxPoint x="760" y="560" as="targetPoint" />
          </mxGeometry>
        </mxCell>
        <mxCell id="aQ1ItRAyzIvojmRAUkcw-13" value="" style="endArrow=none;html=1;rounded=0;exitX=0.5;exitY=0;exitDx=0;exitDy=0;entryX=0.5;entryY=1;entryDx=0;entryDy=0;" edge="1" parent="1" source="aQ1ItRAyzIvojmRAUkcw-15" target="N_5KMHFPPtvNETul84LO-67">
          <mxGeometry width="50" height="50" relative="1" as="geometry">
            <mxPoint x="400" y="940" as="sourcePoint" />
            <mxPoint x="390" y="900" as="targetPoint" />
          </mxGeometry>
        </mxCell>
        <mxCell id="aQ1ItRAyzIvojmRAUkcw-15" value="&lt;div&gt;System is Running&lt;/div&gt;" style="shape=parallelogram;perimeter=parallelogramPerimeter;whiteSpace=wrap;html=1;fixedSize=1;fillColor=#dae8fc;strokeColor=#000000;strokeWidth=4;" vertex="1" parent="1">
          <mxGeometry x="530" y="1010" width="160" height="60" as="geometry" />
        </mxCell>
        <mxCell id="aQ1ItRAyzIvojmRAUkcw-16" value="" style="ellipse;whiteSpace=wrap;html=1;aspect=fixed;fillColor=#e51400;strokeColor=#B20000;fontColor=#ffffff;" vertex="1" parent="1">
          <mxGeometry x="600" y="1150" width="20" height="20" as="geometry" />
        </mxCell>
        <mxCell id="aQ1ItRAyzIvojmRAUkcw-18" value="" style="endArrow=none;html=1;rounded=0;entryX=0.5;entryY=1;entryDx=0;entryDy=0;exitX=0.5;exitY=0;exitDx=0;exitDy=0;" edge="1" parent="1" source="QFNl94cKe365iZrxpkh_-9" target="aQ1ItRAyzIvojmRAUkcw-16">
          <mxGeometry width="50" height="50" relative="1" as="geometry">
            <mxPoint x="510" y="1250" as="sourcePoint" />
            <mxPoint x="560" y="1200" as="targetPoint" />
          </mxGeometry>
        </mxCell>
        <mxCell id="aQ1ItRAyzIvojmRAUkcw-19" value="" style="endArrow=classic;html=1;rounded=0;entryX=0.5;entryY=1;entryDx=0;entryDy=0;exitX=0.5;exitY=0;exitDx=0;exitDy=0;" edge="1" parent="1" source="aQ1ItRAyzIvojmRAUkcw-16" target="aQ1ItRAyzIvojmRAUkcw-15">
          <mxGeometry width="50" height="50" relative="1" as="geometry">
            <mxPoint x="580" y="1140" as="sourcePoint" />
            <mxPoint x="630" y="1090" as="targetPoint" />
          </mxGeometry>
        </mxCell>
        <mxCell id="aQ1ItRAyzIvojmRAUkcw-20" value="" style="ellipse;whiteSpace=wrap;html=1;aspect=fixed;fillColor=#ffff88;strokeColor=#36393d;" vertex="1" parent="1">
          <mxGeometry x="860" y="860" width="20" height="20" as="geometry" />
        </mxCell>
        <mxCell id="aQ1ItRAyzIvojmRAUkcw-21" value="" style="ellipse;whiteSpace=wrap;html=1;aspect=fixed;fillColor=#ffff88;strokeColor=#36393d;" vertex="1" parent="1">
          <mxGeometry x="1220" y="980" width="20" height="20" as="geometry" />
        </mxCell>
        <mxCell id="aQ1ItRAyzIvojmRAUkcw-22" value="" style="endArrow=none;html=1;rounded=0;entryX=0;entryY=1;entryDx=0;entryDy=0;exitX=0.75;exitY=0;exitDx=0;exitDy=0;" edge="1" parent="1" source="aQ1ItRAyzIvojmRAUkcw-15" target="aQ1ItRAyzIvojmRAUkcw-20">
          <mxGeometry width="50" height="50" relative="1" as="geometry">
            <mxPoint x="700" y="980" as="sourcePoint" />
            <mxPoint x="750" y="930" as="targetPoint" />
          </mxGeometry>
        </mxCell>
        <mxCell id="aQ1ItRAyzIvojmRAUkcw-23" value="" style="endArrow=none;html=1;rounded=0;entryX=0;entryY=0.5;entryDx=0;entryDy=0;exitX=1;exitY=0.5;exitDx=0;exitDy=0;" edge="1" parent="1" source="aQ1ItRAyzIvojmRAUkcw-15" target="aQ1ItRAyzIvojmRAUkcw-21">
          <mxGeometry width="50" height="50" relative="1" as="geometry">
            <mxPoint x="950" y="1060" as="sourcePoint" />
            <mxPoint x="1000" y="1010" as="targetPoint" />
          </mxGeometry>
        </mxCell>
        <mxCell id="aQ1ItRAyzIvojmRAUkcw-24" value="" style="endArrow=classic;html=1;rounded=0;entryX=0;entryY=1;entryDx=0;entryDy=0;exitX=1;exitY=0;exitDx=0;exitDy=0;" edge="1" parent="1" source="aQ1ItRAyzIvojmRAUkcw-20" target="7pt3q2MDJ_d6-O4SjyfG-2">
          <mxGeometry width="50" height="50" relative="1" as="geometry">
            <mxPoint x="870" y="850" as="sourcePoint" />
            <mxPoint x="920" y="800" as="targetPoint" />
          </mxGeometry>
        </mxCell>
        <mxCell id="aQ1ItRAyzIvojmRAUkcw-25" value="" style="endArrow=classic;html=1;rounded=0;entryX=0.25;entryY=1;entryDx=0;entryDy=0;exitX=1;exitY=0;exitDx=0;exitDy=0;" edge="1" parent="1" source="aQ1ItRAyzIvojmRAUkcw-21" target="7pt3q2MDJ_d6-O4SjyfG-43">
          <mxGeometry width="50" height="50" relative="1" as="geometry">
            <mxPoint x="1430" y="910" as="sourcePoint" />
            <mxPoint x="1480" y="860" as="targetPoint" />
          </mxGeometry>
        </mxCell>
      </root>
    </mxGraphModel>
  </diagram>
</mxfile>
